<!-- Generated by IcoMoon.io -->
<svg version="1.1" xmlns="http://www.w3.org/2000/svg" width="1024" height="1024" viewBox="0 0 1024 1024">
<title></title>
<g id="task_done">
</g>
<path fill="#000" d="M896 127.66v768.683c-0.090 11.205-4.582 21.924-12.511 29.844-7.928 7.918-18.652 12.403-29.857 12.48h-683.264c-11.229 0-21.999-4.457-29.944-12.393-7.944-7.939-12.413-18.703-12.424-29.932v-768.683c0.089-11.205 4.583-21.925 12.511-29.845s18.652-12.403 29.857-12.481h683.264c23.38 0 42.368 18.944 42.368 42.326v0zM810.668 170.668h-597.334v682.667h597.334v-682.667zM481.836 559.831l181.033-180.992 60.332 60.329-241.364 241.367-165.975-165.975 60.375-60.329 105.6 105.6z"></path>
</svg>
